<mxfile host="app.diagrams.net" modified="2022-10-20T16:08:44.698Z" agent="5.0 (Windows NT 10.0; Win64; x64) AppleWebKit/537.36 (KHTML, like Gecko) Chrome/106.0.5249.114 Whale/3.17.145.12 Safari/537.36" etag="9KOnWfbscBdW1fKknjsw" version="20.4.2" type="github">
  <diagram id="6U4flVFBNzwnJ97xjYMD" name="Page-1">
    <mxGraphModel dx="2607" dy="608" grid="1" gridSize="10" guides="1" tooltips="1" connect="1" arrows="1" fold="1" page="1" pageScale="1" pageWidth="827" pageHeight="1169" math="0" shadow="0">
      <root>
        <mxCell id="0" />
        <mxCell id="1" parent="0" />
        <mxCell id="PZY1bHY--2pUdQMG_SfV-14" value="Client" style="outlineConnect=0;gradientColor=none;fontColor=#545B64;strokeColor=none;fillColor=#879196;dashed=0;verticalLabelPosition=bottom;verticalAlign=top;align=center;html=1;fontSize=12;fontStyle=0;aspect=fixed;shape=mxgraph.aws4.illustration_devices;pointerEvents=1" parent="1" vertex="1">
          <mxGeometry x="-750" y="170" width="100.79" height="73.66" as="geometry" />
        </mxCell>
        <mxCell id="PZY1bHY--2pUdQMG_SfV-17" value="Client" style="outlineConnect=0;gradientColor=none;fontColor=#545B64;strokeColor=none;fillColor=#879196;dashed=0;verticalLabelPosition=bottom;verticalAlign=top;align=center;html=1;fontSize=12;fontStyle=0;aspect=fixed;shape=mxgraph.aws4.illustration_devices;pointerEvents=1" parent="1" vertex="1">
          <mxGeometry x="-750" y="270" width="100.79" height="73.66" as="geometry" />
        </mxCell>
        <mxCell id="5X0R33TW4y5KLD4NC6GZ-1" value="" style="aspect=fixed;html=1;points=[];align=center;image;fontSize=12;image=img/lib/azure2/networking/DNS_Zones.svg;" vertex="1" parent="1">
          <mxGeometry x="-649.21" y="100" width="37" height="37" as="geometry" />
        </mxCell>
        <mxCell id="5X0R33TW4y5KLD4NC6GZ-2" value="Generic group" style="fillColor=#CCE5FF;strokeColor=none;dashed=0;verticalAlign=top;fontStyle=0;fontColor=#232F3D;shadow=1;rounded=1;" vertex="1" parent="1">
          <mxGeometry x="-623" y="158.33" width="123" height="297" as="geometry" />
        </mxCell>
        <mxCell id="5X0R33TW4y5KLD4NC6GZ-3" value="방화벽" style="image;html=1;image=img/lib/clip_art/networking/Firewall_02_128x128.png" vertex="1" parent="1">
          <mxGeometry x="-480" y="235.16" width="87.72" height="108.5" as="geometry" />
        </mxCell>
        <mxCell id="5X0R33TW4y5KLD4NC6GZ-4" value="Generic group" style="fillColor=#CCE5FF;strokeColor=none;dashed=0;verticalAlign=top;fontStyle=0;fontColor=#232F3D;shadow=1;rounded=1;glass=0;sketch=0;" vertex="1" parent="1">
          <mxGeometry x="-380" y="109.17" width="520" height="395.33" as="geometry" />
        </mxCell>
        <mxCell id="5X0R33TW4y5KLD4NC6GZ-5" value="load balancer&lt;br&gt;L4" style="outlineConnect=0;dashed=0;verticalLabelPosition=bottom;verticalAlign=top;align=center;html=1;shape=mxgraph.aws3.classic_load_balancer;fillColor=#F58534;gradientColor=none;" vertex="1" parent="1">
          <mxGeometry x="-370" y="253.41" width="69" height="72" as="geometry" />
        </mxCell>
        <mxCell id="5X0R33TW4y5KLD4NC6GZ-6" value="User" style="verticalLabelPosition=bottom;html=1;verticalAlign=top;strokeWidth=1;align=center;outlineConnect=0;dashed=0;outlineConnect=0;shape=mxgraph.aws3d.end_user;strokeColor=none;fillColor=#777777;aspect=fixed;" vertex="1" parent="1">
          <mxGeometry x="-778" y="290.00000000000006" width="28" height="57.41" as="geometry" />
        </mxCell>
        <mxCell id="5X0R33TW4y5KLD4NC6GZ-7" value="User" style="verticalLabelPosition=bottom;html=1;verticalAlign=top;strokeWidth=1;align=center;outlineConnect=0;dashed=0;outlineConnect=0;shape=mxgraph.aws3d.end_user;strokeColor=none;fillColor=#777777;aspect=fixed;" vertex="1" parent="1">
          <mxGeometry x="-778" y="186.25000000000006" width="28" height="57.41" as="geometry" />
        </mxCell>
        <mxCell id="5X0R33TW4y5KLD4NC6GZ-9" value="" style="shape=image;verticalLabelPosition=bottom;labelBackgroundColor=default;verticalAlign=top;aspect=fixed;imageAspect=0;image=https://d3i71xaburhd42.cloudfront.net/8932ae3405cf565049f9a500ed5daf5a1aabd266/2-Figure1-1.png;" vertex="1" parent="1">
          <mxGeometry x="-840" y="470" width="390" height="210" as="geometry" />
        </mxCell>
      </root>
    </mxGraphModel>
  </diagram>
</mxfile>
